STARTFONT 2.1
FONT -Monotype-Plantin-Bold-I-Normal--24-240-75-75-P-155-iso8859-5
SIZE 24 75 75
FONTBOUNDINGBOX 36 27 -5 -5

STARTPROPERTIES 24
FOUNDRY "Monotype"
FAMILY_NAME "Plantin"
WEIGHT_NAME "Bold"
SLANT "I"
SETWIDTH_NAME "Normal"
ADD_STYLE_NAME ""
PIXEL_SIZE 24
POINT_SIZE 240
RESOLUTION_X 75
RESOLUTION_Y 75
SPACING "P"
AVERAGE_WIDTH 155
CHARSET_REGISTRY "iso8859"
CHARSET_ENCODING "5"
FACE_NAME "Plantin Bold Inclined ISO Latin Cyrillic"
_DEC_DEVICE_FONTNAMES "PS=plantin-bin-latcyrillic"
COPYRIGHT "Copyright (c) 1993 Monotype Typography Ltd."
CAP_HEIGHT 18
X_HEIGHT 12
WEIGHT 10
QUAD_WIDTH 18
DEFAULT_CHAR 160
FONT_DESCENT 5
FONT_ASCENT 22
ENDPROPERTIES

CHARS 191

STARTCHAR space
ENCODING 32
SWIDTH 250 0
DWIDTH 6 0
BBX 0 0 0 0
BITMAP
ENDCHAR

STARTCHAR exclam
ENCODING 33
SWIDTH 365 0
DWIDTH 9 0
BBX 9 18 2 0
BITMAP
0700
0780
0700
0F00
0E00
0E00
0C00
0C00
1800
1800
1800
1000
0000
0000
6000
F000
F000
6000
ENDCHAR

STARTCHAR quotedbl
ENCODING 34
SWIDTH 552 0
DWIDTH 14 0
BBX 10 8 5 9
BITMAP
7180
F3C0
F380
E380
C300
C300
8200
8200
ENDCHAR

STARTCHAR numbersign
ENCODING 35
SWIDTH 500 0
DWIDTH 13 0
BBX 11 17 1 0
BITMAP
1840
18C0
18C0
10C0
1080
FFE0
FFE0
3180
2180
2100
FFE0
FFE0
6300
4300
4200
C200
C600
ENDCHAR

STARTCHAR dollar
ENCODING 36
SWIDTH 542 0
DWIDTH 14 0
BBX 13 19 1 -2
BITMAP
00C0
07E0
1CB0
1998
3918
3918
3F00
1F00
0F80
07C0
07E0
04E0
C4E0
C8E0
C8C0
7B80
3E00
1000
1000
ENDCHAR

STARTCHAR percent
ENCODING 37
SWIDTH 833 0
DWIDTH 21 0
BBX 20 18 0 -1
BITMAP
1E0060
3300C0
738180
738300
E78600
E70C00
E71C00
6E3800
3C7000
00E3E0
01C670
038E70
030E70
061E70
0C1CF0
181CE0
300CC0
700700
ENDCHAR

STARTCHAR ampersand
ENCODING 38
SWIDTH 958 0
DWIDTH 24 0
BBX 22 18 2 0
BITMAP
03FC00
0F8E00
0F0E00
1E0E18
1E003C
0E001C
078F84
1E1FC4
383FFC
7021F8
F020B0
F03880
F03880
F80080
7C0100
7F0700
1FFC00
07F000
ENDCHAR

STARTCHAR quoteright
ENCODING 39
SWIDTH 365 0
DWIDTH 9 0
BBX 5 8 3 10
BITMAP
20
78
78
38
18
30
60
C0
ENDCHAR

STARTCHAR parenleft
ENCODING 40
SWIDTH 437 0
DWIDTH 11 0
BBX 11 22 3 -5
BITMAP
00E0
0380
0700
0E00
1E00
3C00
3800
7800
7800
F000
F000
F000
E000
E000
E000
E000
6000
6000
6000
3000
1000
1000
ENDCHAR

STARTCHAR parenright
ENCODING 41
SWIDTH 437 0
DWIDTH 11 0
BBX 11 22 -2 -5
BITMAP
0100
0180
00C0
00C0
00C0
00E0
00E0
00E0
00E0
01E0
01E0
01E0
01C0
03C0
03C0
0780
0700
0F00
1E00
3800
F000
8000
ENDCHAR

STARTCHAR asterisk
ENCODING 42
SWIDTH 510 0
DWIDTH 13 0
BBX 11 11 2 6
BITMAP
0600
0600
CE00
FE00
7FC0
3FE0
3F00
7E00
E600
4600
0300
ENDCHAR

STARTCHAR plus
ENCODING 43
SWIDTH 667 0
DWIDTH 17 0
BBX 13 13 2 2
BITMAP
0700
0700
0700
0700
0700
FFF8
FFF8
FFF8
0700
0700
0700
0700
0700
ENDCHAR

STARTCHAR comma
ENCODING 44
SWIDTH 365 0
DWIDTH 9 0
BBX 6 9 0 -5
BITMAP
10
3C
3C
3C
1C
18
38
60
C0
ENDCHAR

STARTCHAR minus
ENCODING 45
SWIDTH 667 0
DWIDTH 17 0
BBX 13 3 2 7
BITMAP
FFF8
FFF8
FFF8
ENDCHAR

STARTCHAR period
ENCODING 46
SWIDTH 292 0
DWIDTH 7 0
BBX 4 4 1 0
BITMAP
60
F0
F0
60
ENDCHAR

STARTCHAR slash
ENCODING 47
SWIDTH 281 0
DWIDTH 7 0
BBX 12 17 -2 0
BITMAP
0030
0030
0060
0040
00C0
0180
0100
0300
0600
0600
0C00
0800
1800
3000
2000
6000
C000
ENDCHAR

STARTCHAR zero
ENCODING 48
SWIDTH 542 0
DWIDTH 14 0
BBX 12 17 2 0
BITMAP
07C0
0E60
1C70
3C70
3870
7870
7870
70F0
F0F0
F0E0
F1E0
E1E0
E1C0
E1C0
6380
7700
3E00
ENDCHAR

STARTCHAR one
ENCODING 49
SWIDTH 542 0
DWIDTH 14 0
BBX 10 17 2 0
BITMAP
00C0
03C0
1F80
0780
0780
0700
0700
0F00
0F00
0E00
0E00
1E00
1E00
1C00
3C00
7F00
FF00
ENDCHAR

STARTCHAR two
ENCODING 50
SWIDTH 542 0
DWIDTH 14 0
BBX 14 17 0 0
BITMAP
03F0
0FF8
187C
103C
003C
003C
0038
0070
00E0
01C0
0380
0600
0C00
1010
3FF0
7FF0
FFF0
ENDCHAR

STARTCHAR three
ENCODING 51
SWIDTH 542 0
DWIDTH 14 0
BBX 14 17 0 0
BITMAP
01F0
03FC
063C
041C
001C
0018
0030
00E0
07E0
00F0
0070
0070
0070
00F0
00E0
E3C0
FF00
ENDCHAR

STARTCHAR four
ENCODING 52
SWIDTH 542 0
DWIDTH 14 0
BBX 13 17 1 0
BITMAP
0078
00F0
01F0
0370
06E0
0CE0
19E0
31E0
61C0
C3C0
FFF8
FFF0
0380
0780
0780
0700
0F00
ENDCHAR

STARTCHAR five
ENCODING 53
SWIDTH 542 0
DWIDTH 14 0
BBX 14 18 0 0
BITMAP
0004
03F8
07F8
07F8
0400
0800
0F80
1FC0
1FE0
03E0
00F0
0070
0070
0070
0060
C0C0
F180
FF00
ENDCHAR

STARTCHAR six
ENCODING 54
SWIDTH 542 0
DWIDTH 14 0
BBX 14 17 2 0
BITMAP
003C
03E0
0700
1E00
3C00
3800
7F80
7FC0
F1E0
F0E0
E0E0
E0E0
E1E0
E1E0
61C0
7380
1F00
ENDCHAR

STARTCHAR seven
ENCODING 55
SWIDTH 542 0
DWIDTH 14 0
BBX 12 17 3 0
BITMAP
7FF0
7FE0
7FC0
C0C0
8080
0180
0300
0200
0600
0400
0C00
0800
1800
3000
2000
6000
4000
ENDCHAR

STARTCHAR eight
ENCODING 56
SWIDTH 542 0
DWIDTH 14 0
BBX 13 17 1 0
BITMAP
03E0
0E30
1C18
1C18
1C18
1E30
0F60
07C0
0FC0
3BC0
71E0
E0E0
C0E0
C0E0
E0C0
7180
1F00
ENDCHAR

STARTCHAR nine
ENCODING 57
SWIDTH 542 0
DWIDTH 14 0
BBX 13 17 1 0
BITMAP
07E0
0E70
1C30
3C38
3C38
3838
3838
3878
3C78
1FF0
0EF0
00E0
01E0
03C0
0700
7C00
E000
ENDCHAR

STARTCHAR colon
ENCODING 58
SWIDTH 365 0
DWIDTH 9 0
BBX 6 11 2 0
BITMAP
18
3C
3C
18
00
00
00
60
F0
F0
60
ENDCHAR

STARTCHAR semicolon
ENCODING 59
SWIDTH 365 0
DWIDTH 9 0
BBX 8 16 0 -5
BITMAP
07
0F
0F
06
00
00
00
00
38
3C
3C
1C
18
38
70
C0
ENDCHAR

STARTCHAR less
ENCODING 60
SWIDTH 667 0
DWIDTH 17 0
BBX 13 14 2 1
BITMAP
0008
0078
01F8
07E0
3F80
FC00
E000
F800
7E00
1FC0
03F0
00F8
0018
0008
ENDCHAR

STARTCHAR equal
ENCODING 61
SWIDTH 667 0
DWIDTH 17 0
BBX 13 9 2 4
BITMAP
FFF8
FFF8
FFF8
0000
0000
0000
FFF8
FFF8
FFF8
ENDCHAR

STARTCHAR greater
ENCODING 62
SWIDTH 667 0
DWIDTH 17 0
BBX 13 14 2 1
BITMAP
8000
E000
FC00
3F00
0FC0
01F8
0038
00F8
07F0
1F80
FE00
F000
C000
8000
ENDCHAR

STARTCHAR question
ENCODING 63
SWIDTH 510 0
DWIDTH 13 0
BBX 10 18 2 -1
BITMAP
0F00
1F80
0FC0
00C0
0040
0040
00C0
1FC0
1F80
1F80
3F00
3000
0000
0000
6000
F000
F000
6000
ENDCHAR

STARTCHAR at
ENCODING 64
SWIDTH 833 0
DWIDTH 21 0
BBX 21 22 0 -5
BITMAP
00FE00
030180
0C0040
180020
300020
607710
40D610
418E10
C18E10
839C10
831C10
871C10
873C20
873820
C75840
47B988
431E10
200020
100060
080080
070700
00F800
ENDCHAR

STARTCHAR A
ENCODING 65
SWIDTH 708 0
DWIDTH 18 0
BBX 17 17 -1 0
BITMAP
000380
000780
000F80
001B80
003780
006780
00C780
018780
010F80
020F00
07FF00
0C0F00
180F00
380F00
300F00
F83F80
FC7F80
ENDCHAR

STARTCHAR B
ENCODING 66
SWIDTH 750 0
DWIDTH 19 0
BBX 19 17 0 0
BITMAP
0FFF80
07C3C0
03C1E0
03C1E0
07C1E0
0781E0
0783C0
078780
0FFC00
0F0F00
0F0780
1F03C0
1F03C0
1E03C0
3E07C0
7F1F80
FFFE00
ENDCHAR

STARTCHAR C
ENCODING 67
SWIDTH 750 0
DWIDTH 19 0
BBX 18 18 2 -1
BITMAP
00FE00
03C3C0
0F01C0
1E01C0
3C0080
7C0080
780000
F80000
F80000
F00000
F00000
F00000
F00300
F80700
780E00
780E00
3E3C00
0FF000
ENDCHAR

STARTCHAR D
ENCODING 68
SWIDTH 802 0
DWIDTH 20 0
BBX 19 17 1 0
BITMAP
0FFE00
07C780
07C3C0
0783C0
0781E0
0781E0
0F81E0
0F01E0
0F01E0
0F01E0
1F03E0
1E03C0
1E03C0
3E0780
3E0F80
7E3F00
FFFC00
ENDCHAR

STARTCHAR E
ENCODING 69
SWIDTH 740 0
DWIDTH 18 0
BBX 20 17 0 0
BITMAP
0FFFF0
07C0E0
07C060
07C060
078000
078000
078300
0F8700
0FFF00
0F0600
0F0600
1E0000
1E0000
1E01C0
3E0380
7E0F80
FFFF00
ENDCHAR

STARTCHAR F
ENCODING 70
SWIDTH 667 0
DWIDTH 17 0
BBX 19 17 0 0
BITMAP
0FFFE0
07C1C0
03C0C0
07C0C0
078000
078300
078600
0FFE00
0F0E00
0F0600
1F0400
1E0000
1E0000
1E0000
3E0000
FF8000
FF8000
ENDCHAR

STARTCHAR G
ENCODING 71
SWIDTH 833 0
DWIDTH 21 0
BBX 19 17 2 0
BITMAP
00FF80
07C1E0
0F00E0
1E0060
3C0040
7C0000
780000
F80000
F01FE0
F007C0
F00F80
F00F80
F00F00
780F00
781F00
1E3E00
07FC00
ENDCHAR

STARTCHAR H
ENCODING 72
SWIDTH 844 0
DWIDTH 21 0
BBX 23 17 0 0
BITMAP
0FF1FE
0FE1FC
07C0F8
07C0F0
0780F0
0780F0
0781F0
0F81E0
0FFFE0
0F01E0
0F03C0
1E03C0
1E03C0
1E07C0
3E0780
7F1FC0
FF1FE0
ENDCHAR

STARTCHAR I
ENCODING 73
SWIDTH 417 0
DWIDTH 10 0
BBX 12 17 0 0
BITMAP
0FF0
07F0
03C0
07C0
0780
0780
0780
0F80
0F00
0F00
1F00
1E00
1E00
1E00
3E00
7F80
FF00
ENDCHAR

STARTCHAR J
ENCODING 74
SWIDTH 396 0
DWIDTH 10 0
BBX 18 22 -5 -5
BITMAP
007FC0
007F80
003F00
003E00
003E00
003C00
003C00
007C00
007800
007800
007800
00F800
00F000
00F000
00F000
01E000
01E000
01E000
E3C000
E3C000
F78000
7E0000
ENDCHAR

STARTCHAR K
ENCODING 75
SWIDTH 740 0
DWIDTH 18 0
BBX 21 17 0 0
BITMAP
0FF1F8
07F0F8
07C0E0
07C0C0
078300
078600
079800
0F3800
0F7800
0F7C00
1F3C00
1E3E00
1E1F00
1E0F00
3E0F80
7F87E0
FF07C0
ENDCHAR

STARTCHAR L
ENCODING 76
SWIDTH 667 0
DWIDTH 17 0
BBX 17 17 0 0
BITMAP
0FF800
07F000
07C000
07C000
078000
078000
078000
0F8000
0F0000
0F0000
0F0000
1E0000
1E0000
1E0180
3E0700
7E1F00
FFFE00
ENDCHAR

STARTCHAR M
ENCODING 77
SWIDTH 979 0
DWIDTH 24 0
BBX 26 17 -1 0
BITMAP
03F00FC0
03F00FC0
01F01F00
01F03F00
01703F00
02F06E00
02F8DE00
04F89E00
04791E00
0C7B1E00
087A1E00
187C1E00
107C3E00
10783C00
30303E00
7C307F00
F820FF00
ENDCHAR

STARTCHAR N
ENCODING 78
SWIDTH 812 0
DWIDTH 20 0
BBX 22 17 0 0
BITMAP
1F80FC
0FC038
07C030
07E030
05E020
05F020
0CF060
08F840
087C40
087C40
183EC0
101E80
101F80
100F80
300F80
780780
FC07C0
ENDCHAR

STARTCHAR O
ENCODING 79
SWIDTH 854 0
DWIDTH 21 0
BBX 19 17 2 0
BITMAP
01FE00
07C780
0F03C0
1E01C0
3E01E0
3C01E0
7C01E0
7801E0
F803E0
F803E0
F803C0
F807C0
780780
780F00
3C0E00
1E3C00
07F000
ENDCHAR

STARTCHAR P
ENCODING 80
SWIDTH 677 0
DWIDTH 17 0
BBX 19 17 -1 0
BITMAP
0FFF80
07E3C0
03C1E0
03C1E0
03C1E0
07C3E0
0783C0
078FC0
0FBF00
0F0000
0F0000
0F0000
1F0000
1E0000
3F0000
7F8000
FF8000
ENDCHAR

STARTCHAR Q
ENCODING 81
SWIDTH 854 0
DWIDTH 21 0
BBX 19 22 2 -5
BITMAP
01FE00
03C780
0F03C0
1E01C0
3E01E0
3C01E0
7C01E0
7801E0
7803E0
F803E0
F803C0
F803C0
780780
780780
380F00
3C1E00
0FF800
07C000
03F800
01FFC0
007F80
001F00
ENDCHAR

STARTCHAR R
ENCODING 82
SWIDTH 781 0
DWIDTH 20 0
BBX 20 17 0 0
BITMAP
0FFF80
07C3E0
07C1E0
0781F0
0781F0
0781F0
0F83E0
0F07C0
0FFD00
0F3E00
1F1E00
1E1E00
1E1F00
3E0F00
3E0F80
FE0FC0
FF07C0
ENDCHAR

STARTCHAR S
ENCODING 83
SWIDTH 625 0
DWIDTH 16 0
BBX 16 17 0 0
BITMAP
03FC
078F
0707
0F03
0F02
0F80
07C0
03E0
03F0
00F8
007C
003C
E03C
E03C
F038
7870
1FE0
ENDCHAR

STARTCHAR T
ENCODING 84
SWIDTH 729 0
DWIDTH 18 0
BBX 18 17 3 0
BITMAP
7FFFC0
F1E3C0
C1E180
83E180
03C000
03C000
07C000
078000
078000
078000
0F8000
0F0000
0F0000
1F0000
1F0000
7FC000
7F8000
ENDCHAR

STARTCHAR U
ENCODING 85
SWIDTH 792 0
DWIDTH 20 0
BBX 19 18 3 -1
BITMAP
7F87E0
7F87C0
3E0180
3E0100
3C0100
3C0100
7C0300
780200
780200
780200
F80600
F00400
F00400
F00C00
F80800
783800
3FE000
0F8000
ENDCHAR

STARTCHAR V
ENCODING 86
SWIDTH 719 0
DWIDTH 18 0
BBX 17 18 4 -1
BITMAP
FF1F80
FE0F80
7C0E00
780C00
780C00
781800
781000
782000
786000
784000
788000
790000
7B0000
7E0000
7C0000
780000
780000
700000
ENDCHAR

STARTCHAR W
ENCODING 87
SWIDTH 969 0
DWIDTH 24 0
BBX 24 18 3 -1
BITMAP
FE7F1F
FC7F1F
783C0C
783C08
783C18
783C10
783C30
787C20
785E60
78BE40
799E80
791E80
7F1F00
7C1F00
3C1E00
3C1E00
381C00
301C00
ENDCHAR

STARTCHAR X
ENCODING 88
SWIDTH 771 0
DWIDTH 19 0
BBX 21 17 0 0
BITMAP
0FF9F8
07E1F0
03E0E0
03E0C0
01E100
01F600
00FC00
00F800
007C00
007C00
01BE00
031E00
061F00
0C0F00
380F80
FC1FC0
FC3FC0
ENDCHAR

STARTCHAR Y
ENCODING 89
SWIDTH 677 0
DWIDTH 17 0
BBX 16 17 3 0
BITMAP
FE1F
FC1F
780E
7C0C
3C18
3C30
3C20
1E40
1EC0
1F80
1F00
1F00
1E00
1E00
3E00
7F00
FF80
ENDCHAR

STARTCHAR Z
ENCODING 90
SWIDTH 687 0
DWIDTH 17 0
BBX 19 17 0 0
BITMAP
07FFE0
07C7C0
0E0F80
0C1F80
003F00
007E00
007C00
00F800
01F000
03E000
07E000
0FC000
1F8000
3F0300
3E0700
7C1E00
FFFE00
ENDCHAR

STARTCHAR bracketleft
ENCODING 91
SWIDTH 385 0
DWIDTH 10 0
BBX 13 22 0 -5
BITMAP
01F8
03E0
0380
0380
0780
0700
0700
0F00
0F00
0E00
1E00
1E00
1C00
3C00
3C00
3800
3800
7800
7000
7000
F800
FC00
ENDCHAR

STARTCHAR backslash
ENCODING 92
SWIDTH 281 0
DWIDTH 7 0
BBX 3 17 2 0
BITMAP
80
C0
C0
C0
C0
C0
40
40
40
40
40
60
60
60
60
60
60
ENDCHAR

STARTCHAR bracketright
ENCODING 93
SWIDTH 385 0
DWIDTH 10 0
BBX 12 22 -2 -5
BITMAP
03F0
01F0
00F0
00E0
00E0
01E0
01C0
01C0
03C0
0380
0380
0780
0700
0700
0F00
0F00
0E00
1E00
1E00
1C00
7C00
FC00
ENDCHAR

STARTCHAR asciicircum
ENCODING 94
SWIDTH 573 0
DWIDTH 14 0
BBX 11 9 2 8
BITMAP
0400
0E00
1E00
1B00
3300
3180
6180
C0C0
C0E0
ENDCHAR

STARTCHAR underscore
ENCODING 95
SWIDTH 500 0
DWIDTH 13 0
BBX 13 1 0 -5
BITMAP
FFF8
ENDCHAR

STARTCHAR quoteleft
ENCODING 96
SWIDTH 365 0
DWIDTH 9 0
BBX 6 8 4 10
BITMAP
0C
38
60
C0
E0
F0
F0
60
ENDCHAR

STARTCHAR a
ENCODING 97
SWIDTH 594 0
DWIDTH 15 0
BBX 14 11 1 0
BITMAP
07D8
1C78
3878
3870
7070
70F0
F0E0
F1E0
FBEC
7EF0
38E0
ENDCHAR

STARTCHAR b
ENCODING 98
SWIDTH 615 0
DWIDTH 15 0
BBX 13 18 2 0
BITMAP
0600
7E00
1E00
1C00
1C00
3C00
39E0
3BF0
7C78
7878
7078
F078
F078
E0F0
E0F0
E1E0
73C0
3F00
ENDCHAR

STARTCHAR c
ENCODING 99
SWIDTH 500 0
DWIDTH 13 0
BBX 11 11 1 0
BITMAP
0FC0
3CE0
78E0
7040
E000
E000
E000
F000
F8E0
7F80
3E00
ENDCHAR

STARTCHAR d
ENCODING 100
SWIDTH 625 0
DWIDTH 16 0
BBX 16 17 1 0
BITMAP
0003
007E
001E
001E
001C
003C
07DC
1C78
3878
7078
F070
E0F0
E0F0
E1E0
F3EC
FEF8
7CE0
ENDCHAR

STARTCHAR e
ENCODING 101
SWIDTH 510 0
DWIDTH 13 0
BBX 11 11 1 0
BITMAP
07C0
1CE0
3860
70E0
F1C0
EF80
FC00
F000
F0E0
7F80
3E00
ENDCHAR

STARTCHAR f
ENCODING 102
SWIDTH 333 0
DWIDTH 8 0
BBX 17 22 -4 -5
BITMAP
000F00
003B80
007300
007000
00F000
00E000
03F800
01E000
01E000
01C000
01C000
03C000
03C000
038000
078000
078000
070000
070000
0E0000
EE0000
F80000
700000
ENDCHAR

STARTCHAR g
ENCODING 103
SWIDTH 594 0
DWIDTH 15 0
BBX 16 16 -1 -5
BITMAP
03F7
073B
0F1C
0E1C
0E1C
0E3C
0F38
07F0
1800
3800
3FF0
1FF8
3FF8
E038
E030
3FC0
ENDCHAR

STARTCHAR h
ENCODING 104
SWIDTH 625 0
DWIDTH 16 0
BBX 15 17 0 0
BITMAP
0180
1F80
0F00
0700
0F00
0E00
0E38
1E7C
1D9C
1D3C
3E38
3C78
3C78
78F0
78E6
70F8
F0F0
ENDCHAR

STARTCHAR i
ENCODING 105
SWIDTH 333 0
DWIDTH 8 0
BBX 9 18 1 0
BITMAP
0300
0780
0780
0300
0000
0000
1800
7C00
DC00
9C00
3C00
3800
7800
7800
7200
F400
F800
7000
ENDCHAR

STARTCHAR j
ENCODING 106
SWIDTH 323 0
DWIDTH 8 0
BBX 13 22 -4 -5
BITMAP
0030
0078
0078
0030
0000
0000
01E0
03E0
06E0
01E0
01E0
01C0
01C0
03C0
03C0
0380
0380
0780
0700
E600
EE00
7800
ENDCHAR

STARTCHAR k
ENCODING 107
SWIDTH 625 0
DWIDTH 16 0
BBX 15 17 1 0
BITMAP
0780
3F00
0F00
0F00
0E00
1E00
1E78
1DFC
3E3C
3C1C
3838
79F0
7FE0
71E0
F0F6
F0FC
E070
ENDCHAR

STARTCHAR l
ENCODING 108
SWIDTH 302 0
DWIDTH 8 0
BBX 8 17 1 0
BITMAP
03
3F
0E
0E
1E
1C
1C
3C
38
38
78
70
70
F0
E4
F8
F0
ENDCHAR

STARTCHAR m
ENCODING 109
SWIDTH 1000 0
DWIDTH 25 0
BBX 25 12 0 0
BITMAP
3C3C1C00
7C7E3E00
DC8E4E00
9D0E8E00
3E1F1E00
3E1F1C00
3C1E1C00
783C1C00
783C3D80
70383B00
F0783E00
F0783C00
ENDCHAR

STARTCHAR n
ENCODING 110
SWIDTH 635 0
DWIDTH 16 0
BBX 15 12 0 0
BITMAP
3C38
7CFC
DD9C
9D1C
3A3C
3C38
3C38
7878
7870
7072
F07C
E078
ENDCHAR

STARTCHAR o
ENCODING 111
SWIDTH 573 0
DWIDTH 14 0
BBX 12 11 1 0
BITMAP
0FC0
3CE0
7870
7070
F070
E070
E0F0
E0E0
E1E0
73C0
1F00
ENDCHAR

STARTCHAR p
ENCODING 112
SWIDTH 615 0
DWIDTH 15 0
BBX 17 18 -3 -5
BITMAP
00E000
01E000
01FC00
03FF00
07C780
0DC780
138380
038380
078380
078780
070700
0F0E00
0FF800
0FC000
0E0000
1E0000
3E0000
FF8000
ENDCHAR

STARTCHAR q
ENCODING 113
SWIDTH 594 0
DWIDTH 15 0
BBX 14 16 1 -4
BITMAP
03EC
0E3C
1C3C
3838
7838
7078
F070
F070
F0F0
F1E0
7EE0
3DE0
01C0
01C0
03C0
0FF0
ENDCHAR

STARTCHAR r
ENCODING 114
SWIDTH 479 0
DWIDTH 12 0
BBX 12 11 1 0
BITMAP
3860
7CF0
DD70
9D60
1E00
3A00
3C00
3C00
3800
7800
7800
ENDCHAR

STARTCHAR s
ENCODING 115
SWIDTH 490 0
DWIDTH 12 0
BBX 12 11 0 0
BITMAP
0FC0
18E0
3870
3C60
3F00
1F80
07C0
E3C0
E1C0
F380
3F00
ENDCHAR

STARTCHAR t
ENCODING 116
SWIDTH 365 0
DWIDTH 9 0
BBX 8 15 2 0
BITMAP
06
0C
1C
3C
FF
38
78
78
70
70
F0
E2
E4
FC
70
ENDCHAR

STARTCHAR u
ENCODING 117
SWIDTH 635 0
DWIDTH 16 0
BBX 14 12 1 0
BITMAP
1800
7C3C
5C38
9C78
3C78
3870
38F0
7970
7164
72EC
7CF8
38E0
ENDCHAR

STARTCHAR v
ENCODING 118
SWIDTH 573 0
DWIDTH 14 0
BBX 13 11 1 0
BITMAP
3F38
7E38
F638
8C18
5C18
1818
3810
3830
3C60
3FC0
0F00
ENDCHAR

STARTCHAR w
ENCODING 119
SWIDTH 854 0
DWIDTH 21 0
BBX 20 11 1 0
BITMAP
3F1C60
7E3CF0
FE3C70
C43870
8C3030
183830
383820
787C60
3CDFC0
3F9F80
1E0F00
ENDCHAR

STARTCHAR x
ENCODING 120
SWIDTH 615 0
DWIDTH 15 0
BBX 15 11 0 0
BITMAP
1E1E
3F3E
6F66
07C0
0780
03C0
03C0
06E0
ECE6
F8F8
7070
ENDCHAR

STARTCHAR y
ENCODING 121
SWIDTH 552 0
DWIDTH 14 0
BBX 16 16 -2 -5
BITMAP
0706
0F8F
1B8F
138F
0386
03C6
03CC
01C8
01D8
01F0
01E0
00C0
0180
F300
FE00
7800
ENDCHAR

STARTCHAR z
ENCODING 122
SWIDTH 500 0
DWIDTH 13 0
BBX 12 11 1 0
BITMAP
1E30
3FE0
5FE0
60C0
6300
0E00
18C0
2040
7EC0
FF80
9F00
ENDCHAR

STARTCHAR braceleft
ENCODING 123
SWIDTH 396 0
DWIDTH 10 0
BBX 10 22 5 -5
BITMAP
01C0
0300
0E00
0E00
0E00
0C00
0C00
1C00
1800
1000
6000
C000
3000
3000
3000
7000
7000
E000
E000
C000
C000
7000
ENDCHAR

STARTCHAR bar
ENCODING 124
SWIDTH 219 0
DWIDTH 5 0
BBX 2 22 2 -5
BITMAP
C0
C0
C0
C0
C0
C0
C0
C0
C0
C0
C0
C0
C0
C0
C0
C0
C0
C0
C0
C0
C0
C0
ENDCHAR

STARTCHAR braceright
ENCODING 125
SWIDTH 396 0
DWIDTH 10 0
BBX 10 22 1 -5
BITMAP
0380
00C0
00C0
01C0
01C0
01C0
0380
0380
0300
0300
00C0
0180
0300
0600
0E00
0E00
0C00
0C00
1C00
1C00
3800
E000
ENDCHAR

STARTCHAR asciitilde
ENCODING 126
SWIDTH 573 0
DWIDTH 14 0
BBX 12 5 1 6
BITMAP
3810
7F10
7FF0
87E0
01C0
ENDCHAR

STARTCHAR space
ENCODING 160
SWIDTH 250 0
DWIDTH 7 0
BBX 0 0 0 0
BITMAP
ENDCHAR

STARTCHAR afii10023
ENCODING 161
SWIDTH 740 0
DWIDTH 18 0
BBX 20 22 0 0
BITMAP
00C0C0
01E1E0
01E1E0
00C0C0
000000
0FFFF0
07C0E0
07C060
078060
078000
078000
0F8180
0F0700
0FFF00
0F0700
1F0600
1E0000
1E0000
3E00C0
3E0380
7E0F80
FFFF00
ENDCHAR

STARTCHAR afii10051
ENCODING 162
SWIDTH 865 0
DWIDTH 22 0
BBX 20 17 1 0
BITMAP
3FFFE0
78F1E0
61F0C0
C1E0C0
01E000
01E000
03EF80
03E1E0
03C0F0
07C0F0
0780F0
0780F0
0781F0
0FB9E0
0F39E0
3FB3C0
3F9F00
ENDCHAR

STARTCHAR afii10052
ENCODING 163
SWIDTH 656 0
DWIDTH 16 0
BBX 18 22 0 0
BITMAP
003F80
003C00
007000
000000
000000
0FFFC0
07E1C0
07C1C0
078080
078080
078000
0F8000
0F0000
0F0000
1F0000
1E0000
1E0000
1E0000
3E0000
3E0000
7F0000
FE0000
ENDCHAR

STARTCHAR afii10053
ENCODING 164
SWIDTH 771 0
DWIDTH 19 0
BBX 19 17 2 0
BITMAP
00FF80
03C3E0
0F00E0
1E00E0
3E0060
3C0000
7C0000
780000
FFFC00
F80000
F80000
F80000
F80380
780780
7C0F80
3E1F00
07FC00
ENDCHAR

STARTCHAR afii10054
ENCODING 165
SWIDTH 625 0
DWIDTH 16 0
BBX 16 17 0 0
BITMAP
03FC
078F
0707
0F03
0F02
0F80
07C0
03E0
03F0
01F8
007C
007C
E03C
E03C
F038
78F0
1FE0
ENDCHAR

STARTCHAR afii10055
ENCODING 166
SWIDTH 417 0
DWIDTH 10 0
BBX 12 17 0 0
BITMAP
0FF0
07F0
03C0
07C0
0780
0780
0780
0F80
0F00
0F00
1F00
1E00
1E00
1E00
3E00
7F80
FF00
ENDCHAR

STARTCHAR afii10056
ENCODING 167
SWIDTH 417 0
DWIDTH 10 0
BBX 15 22 0 0
BITMAP
0C0C
1E1E
1E1E
0C0C
0000
0FF0
07F0
07C0
07C0
0780
0780
0F80
0F00
0F00
1F00
1F00
1E00
1E00
3E00
3E00
FF00
FF00
ENDCHAR

STARTCHAR afii10057
ENCODING 168
SWIDTH 396 0
DWIDTH 10 0
BBX 18 22 -5 -5
BITMAP
007FC0
007F80
003F00
003E00
003E00
003C00
003C00
007C00
007800
007800
007800
00F800
00F000
00F000
00F000
01E000
01E000
01E000
E3C000
E3C000
F78000
7E0000
ENDCHAR

STARTCHAR afii10058
ENCODING 169
SWIDTH 1099 0
DWIDTH 27 0
BBX 27 17 0 0
BITMAP
01FFFC00
00F1F800
0060F000
0040F000
0041F000
00C1E000
0081E000
0081E000
0083FF00
0103C7C0
0103C1E0
0107C1E0
010781E0
620781E0
F20F83C0
FC1F8780
783FFF00
ENDCHAR

STARTCHAR afii10059
ENCODING 170
SWIDTH 1125 0
DWIDTH 28 0
BBX 27 17 1 0
BITMAP
0FF3FC00
0FE1FC00
07C0F000
0780F000
0F81F000
0F81E000
0F01E000
0F01E000
1FFFFF00
1E03C3C0
1E03C1E0
1E07C1E0
3E0781E0
3C0781E0
7C0F83C0
7E1F87C0
FE3FFF00
ENDCHAR

STARTCHAR afii10060
ENCODING 171
SWIDTH 906 0
DWIDTH 23 0
BBX 20 17 1 0
BITMAP
7FFFC0
79F1C0
61E1C0
C1E0C0
03E000
03C000
03CFC0
03D9E0
07E0F0
07C0F0
0780F0
0781F0
0F01E0
0F01E0
1F03E0
3F87F0
7F8FF0
ENDCHAR

STARTCHAR afii10061
ENCODING 172
SWIDTH 723 0
DWIDTH 18 0
BBX 21 22 0 0
BITMAP
000FE0
001F00
001C00
003000
000000
0FF070
07E0F8
07C1F8
07C300
078200
078600
0F8C00
0F3800
0FFC00
0F3E00
1F3E00
1E1E00
1E1F00
3E0F00
3E0F80
7F0FC0
FE07C0
ENDCHAR

STARTCHAR hyphen
ENCODING 173
SWIDTH 458 0
DWIDTH 11 0
BBX 9 3 1 4
BITMAP
7F80
FF80
FF80
ENDCHAR

STARTCHAR afii10062
ENCODING 174
SWIDTH 719 0
DWIDTH 18 0
BBX 18 23 2 -1
BITMAP
070700
070780
078F00
03FE00
000000
7F87C0
3F07C0
1E0300
1E0300
1E0600
0F0600
0F0C00
0F0800
079800
079000
07B000
07A000
03E000
63C000
F38000
F18000
7F0000
1C0000
ENDCHAR

STARTCHAR afii10145
ENCODING 175
SWIDTH 844 0
DWIDTH 21 0
BBX 23 22 0 -5
BITMAP
0FF1FE
07E1FC
03C0F8
07C0F0
0780F0
0780F0
0781E0
0F81E0
0F01E0
0F03E0
1F03C0
1E03C0
1E03C0
1E07C0
3E07C0
7E0FC0
FFFFE0
01E000
01C000
01C000
03C000
03C000
ENDCHAR

STARTCHAR afii10017
ENCODING 176
SWIDTH 708 0
DWIDTH 18 0
BBX 17 17 -1 0
BITMAP
000380
000780
000F80
001B80
003780
006780
00C780
018780
010F80
020F00
07FF00
0C0F00
180F00
380F00
380F00
F83F80
FC7F80
ENDCHAR

STARTCHAR afii10018
ENCODING 177
SWIDTH 729 0
DWIDTH 18 0
BBX 19 17 0 0
BITMAP
0FFFE0
07E1C0
03C0C0
03C0C0
07C0C0
078000
078000
078000
0FFC00
0F0F00
0F0780
1F0780
1E0780
1E0780
3E0F00
3E1F00
FFFC00
ENDCHAR

STARTCHAR afii10019
ENCODING 178
SWIDTH 750 0
DWIDTH 19 0
BBX 19 17 0 0
BITMAP
0FFF80
07C3C0
03C1E0
03C1E0
07C1E0
0781E0
0783C0
078780
0FFC00
0F0F00
0F0780
1F03C0
1F03C0
1E03C0
3E07C0
7F1F80
FFFE00
ENDCHAR

STARTCHAR afii10020
ENCODING 179
SWIDTH 633 0
DWIDTH 16 0
BBX 18 17 0 0
BITMAP
0FFFC0
07E1C0
07C1C0
07C080
078080
078000
0F8000
0F0000
0F0000
1F0000
1E0000
1E0000
1E0000
3E0000
3E0000
7F0000
FE0000
ENDCHAR

STARTCHAR afii10021
ENCODING 180
SWIDTH 719 0
DWIDTH 18 0
BBX 22 22 -2 -5
BITMAP
03FFFC
01C1F8
0081F0
0081E0
0181E0
0101E0
0103E0
0103C0
0203C0
0207C0
020780
040780
040780
0C0F80
080F00
381F80
7FFFC0
7003C0
E00180
C00180
800180
800180
ENDCHAR

STARTCHAR afii10022
ENCODING 181
SWIDTH 740 0
DWIDTH 18 0
BBX 20 17 0 0
BITMAP
0FFFF0
07C0E0
07C060
07C060
078000
078000
078300
0F8700
0FFF00
0F0600
0F0600
1F0000
1E0000
1E01C0
3E0380
7E0F80
FFFF00
ENDCHAR

STARTCHAR afii10024
ENCODING 182
SWIDTH 915 0
DWIDTH 23 0
BBX 28 17 -2 0
BITMAP
070FF8E0
0787F1F0
07C3E3F0
0243C260
0043C400
00478400
00478800
00279800
01FFF800
07CF3C00
078F3C00
0F9F3E00
0F1E1E00
1F1E1E00
3E3E1E00
7C7F0F00
FC7F8F80
ENDCHAR

STARTCHAR afii10025
ENCODING 183
SWIDTH 656 0
DWIDTH 16 0
BBX 16 17 0 0
BITMAP
03FC
0F1E
0C0F
080F
000F
001F
003E
03E0
0038
001C
001E
001E
E01E
F03E
703C
7878
1FE0
ENDCHAR

STARTCHAR afii10026
ENCODING 184
SWIDTH 844 0
DWIDTH 21 0
BBX 23 17 0 0
BITMAP
0FF1FE
07E1FC
03C0F8
07C0F0
0781F0
0782F0
0785F0
0F89E0
0F11E0
0F23E0
1F43C0
1E83C0
1F07C0
1E07C0
3E07C0
7F1FE0
FF1FC0
ENDCHAR

STARTCHAR afii10027
ENCODING 185
SWIDTH 844 0
DWIDTH 21 0
BBX 23 22 0 0
BITMAP
007070
007078
0078F0
003FE0
000000
0FF1FE
07E1FC
07C0F8
07C0F0
0781F0
0782F0
0785F0
0F89E0
0F11E0
0F23E0
1F43C0
1E83C0
1F07C0
1E07C0
3E07C0
7F1FE0
FF1FC0
ENDCHAR

STARTCHAR afii10028
ENCODING 186
SWIDTH 723 0
DWIDTH 18 0
BBX 21 17 0 0
BITMAP
0FF070
07E0F8
07C1F8
07C300
078200
078600
0F8C00
0F3800
0FFC00
0F3E00
1F3E00
1E1E00
1E1F00
3E0F00
3E0F80
7F0FC0
FE07C0
ENDCHAR

STARTCHAR afii10029
ENCODING 187
SWIDTH 835 0
DWIDTH 21 0
BBX 22 17 0 0
BITMAP
01FFFC
0061F8
0060F0
0041F0
0041E0
00C1E0
0081E0
0083E0
0083C0
0103C0
0103C0
010780
030780
720780
F60F80
FC1FC0
783FC0
ENDCHAR

STARTCHAR afii10030
ENCODING 188
SWIDTH 979 0
DWIDTH 24 0
BBX 26 17 -1 0
BITMAP
03F00FC0
03F00FC0
01F01F00
01F03F00
01703F00
02F06E00
02F8DE00
04F89E00
04791E00
0C7B1E00
087A1E00
187C1E00
107C3E00
10783C00
30303E00
7C307F00
F820FF00
ENDCHAR

STARTCHAR afii10031
ENCODING 189
SWIDTH 844 0
DWIDTH 21 0
BBX 23 17 0 0
BITMAP
0FF1FE
0FE0FC
07C0F8
07C0F0
0780F0
0780F0
0781F0
0F81E0
0FFFE0
0F01E0
0F03C0
1E03C0
1E03C0
1E07C0
3E07C0
7F1FC0
FF1FE0
ENDCHAR

STARTCHAR afii10032
ENCODING 190
SWIDTH 854 0
DWIDTH 21 0
BBX 19 17 2 0
BITMAP
01FE00
03C780
0F03C0
1E01C0
3E01E0
3C01E0
7C01E0
7801E0
F803E0
F803E0
F803C0
F807C0
780780
780F00
3C0E00
1E3C00
07F000
ENDCHAR

STARTCHAR afii10033
ENCODING 191
SWIDTH 854 0
DWIDTH 21 0
BBX 22 17 1 0
BITMAP
0FFFFC
0FC1F8
0781F0
0781F0
0F81E0
0F01E0
0F03E0
1F03C0
1E03C0
1E03C0
1E07C0
3E0780
3C0780
3C0F80
7C0F80
FE1FC0
FE3FC0
ENDCHAR

STARTCHAR afii10034
ENCODING 192
SWIDTH 677 0
DWIDTH 17 0
BBX 19 17 -1 0
BITMAP
0FFF80
07E3C0
03C1E0
03C1E0
03C1E0
07C3E0
0783C0
0787C0
07BF00
0F0000
0F0000
0F0000
1F0000
1E0000
1F0000
7F8000
FF8000
ENDCHAR

STARTCHAR afii10035
ENCODING 193
SWIDTH 750 0
DWIDTH 19 0
BBX 18 18 2 -1
BITMAP
01FE00
07C780
0F01C0
1E01C0
3C0080
7C0080
780000
F80000
F80000
F00000
F00000
F00000
F00300
F80700
780600
780E00
3E3C00
0FF000
ENDCHAR

STARTCHAR afii10036
ENCODING 194
SWIDTH 729 0
DWIDTH 18 0
BBX 18 17 3 0
BITMAP
7FFFC0
F1E3C0
C1E180
83E180
03C000
03C000
07C000
078000
078000
078000
0F8000
0F0000
0F0000
1F0000
1F0000
7FC000
7F8000
ENDCHAR

STARTCHAR afii10037
ENCODING 195
SWIDTH 719 0
DWIDTH 18 0
BBX 18 18 2 -1
BITMAP
7F87C0
3F07C0
1E0300
1E0300
1E0600
0F0600
0F0C00
0F0800
079800
079000
07B000
07A000
03E000
63C000
F38000
F18000
7F0000
1C0000
ENDCHAR

STARTCHAR afii10038
ENCODING 196
SWIDTH 1021 0
DWIDTH 26 0
BBX 23 17 2 0
BITMAP
003FC0
003F80
001F00
07FFF0
1F1E7C
7C3C1E
783C1E
F83C1E
F07C1E
F0783E
F0783C
787878
7CF9F0
1FFFC0
01F000
03F800
07FC00
ENDCHAR

STARTCHAR afii10039
ENCODING 197
SWIDTH 771 0
DWIDTH 19 0
BBX 21 17 0 0
BITMAP
0FF9F8
07E1F0
03E0E0
03E0C0
01E100
01F600
00FC00
00F800
007C00
007C00
01BE00
031E00
061F00
0C0F00
380F80
FC1FC0
FC3FC0
ENDCHAR

STARTCHAR afii10040
ENCODING 198
SWIDTH 844 0
DWIDTH 21 0
BBX 23 22 0 -5
BITMAP
0FF1FE
0FE1FC
07C0F8
0780F0
0780F0
0781F0
0F81E0
0F01E0
0F03E0
1F03C0
1E03C0
1E03C0
1E07C0
3E0780
3C0780
7E0FC0
FFFFC0
0001C0
0001C0
0000C0
000080
000080
ENDCHAR

STARTCHAR afii10041
ENCODING 199
SWIDTH 802 0
DWIDTH 20 0
BBX 19 17 3 0
BITMAP
FF1FE0
FE1FC0
7C0F80
780F00
780F00
F81E00
F01E00
F03E00
F07E00
79DC00
3F3C00
003C00
007800
007800
00F800
01FC00
01FC00
ENDCHAR

STARTCHAR afii10042
ENCODING 200
SWIDTH 1083 0
DWIDTH 27 0
BBX 29 17 0 0
BITMAP
0FF7F7F8
0FE7E7F0
07C7C3E0
0787C3C0
078787C0
07878780
0F878780
0F0F8780
0F0F0F80
0F0F0F00
1E0F0F00
1E1F0F00
1E1E1E00
3E1E1E00
3E3E1E00
7E7E3E00
FFFFFF00
ENDCHAR

STARTCHAR afii10043
ENCODING 201
SWIDTH 1083 0
DWIDTH 27 0
BBX 29 22 0 -5
BITMAP
0FE7F7F8
0FE7E7F0
07C7C3C0
0787C3C0
0787C7C0
07878780
0F878780
0F0F8780
0F0F0F80
1F0F0F00
1E0F0F00
1E1F0F00
1E1E1E00
3E1E1E00
3E3E1E00
7E7E3E00
FFFFFF00
00000F00
00000700
00000300
00000200
00000200
ENDCHAR

STARTCHAR afii10044
ENCODING 202
SWIDTH 823 0
DWIDTH 21 0
BBX 18 17 2 0
BITMAP
7FFC00
79F000
61F000
C1E000
01E000
03E000
03C000
03C000
07FE00
07C780
0783C0
0783C0
0F83C0
0F03C0
0F0780
1F8F80
3FFE00
ENDCHAR

STARTCHAR afii10045
ENCODING 203
SWIDTH 1050 0
DWIDTH 26 0
BBX 28 17 0 0
BITMAP
0FF00FF0
0FE00FF0
07C007C0
078007C0
07800780
0F800780
0F000780
0F000F00
0FF80F00
1F1E0F00
1E0F1F00
1E0F1E00
3E0F1E00
3C0F1E00
3C1E3E00
7E3E7E00
FFF8FF00
ENDCHAR

STARTCHAR afii10046
ENCODING 204
SWIDTH 719 0
DWIDTH 18 0
BBX 17 17 0 0
BITMAP
0FF000
07F000
03C000
03C000
07C000
078000
078000
0F8000
0FFC00
0F0F00
0F0780
1F0780
1E0780
1E0780
3E0F00
7E1F00
FFFC00
ENDCHAR

STARTCHAR afii10047
ENCODING 205
SWIDTH 777 0
DWIDTH 19 0
BBX 18 17 1 0
BITMAP
07F800
1E0E00
1C0780
180380
1003C0
0003C0
0003C0
0003C0
07FFC0
0007C0
0007C0
000F80
E00F80
F01F00
F03E00
787C00
1FE000
ENDCHAR

STARTCHAR afii10048
ENCODING 206
SWIDTH 1250 0
DWIDTH 31 0
BBX 31 17 0 0
BITMAP
0FF00FE0
07F07C78
03C0F03C
07C1E01C
07C3E01E
0783C01E
0787C01E
0F87801E
0FFF803E
0F0F803E
0F0F803C
1F0F803C
1E078078
1E0780F8
3E03C0E0
7F01E3C0
FF007F00
ENDCHAR

STARTCHAR afii10049
ENCODING 207
SWIDTH 792 0
DWIDTH 20 0
BBX 22 17 -1 0
BITMAP
00FFFC
03E1F8
03C1F0
0781E0
0781E0
0781E0
0783E0
01E3C0
00FFC0
01F3C0
03E780
07C780
0FC780
1F8F80
3F0F80
7E3FC0
FC3FC0
ENDCHAR

STARTCHAR afii10065
ENCODING 208
SWIDTH 585 0
DWIDTH 15 0
BBX 14 11 0 0
BITMAP
07D8
1C78
3878
3870
7070
70F0
F0E0
F1E0
FBEC
7EF0
78E0
ENDCHAR

STARTCHAR afii10066
ENCODING 209
SWIDTH 573 0
DWIDTH 14 0
BBX 14 17 1 0
BITMAP
000C
0FF8
1FE0
3000
6000
47C0
5CE0
D870
B070
B070
F070
E0F0
E0F0
E0E0
61E0
73C0
1F00
ENDCHAR

STARTCHAR afii10067
ENCODING 210
SWIDTH 514 0
DWIDTH 13 0
BBX 11 11 1 0
BITMAP
0FE0
3CE0
7860
70E0
F380
FF80
E1C0
E1C0
61C0
7380
1F00
ENDCHAR

STARTCHAR afii10068
ENCODING 211
SWIDTH 378 0
DWIDTH 9 0
BBX 8 12 1 0
BITMAP
0E
3F
27
07
06
0C
38
70
E0
E2
E4
78
ENDCHAR

STARTCHAR afii10069
ENCODING 212
SWIDTH 568 0
DWIDTH 14 0
BBX 13 17 1 0
BITMAP
0300
00C0
00E0
0060
0070
0070
1FB8
3CF8
7878
7078
F078
E070
E070
E0F0
E0E0
73C0
1F00
ENDCHAR

STARTCHAR afii10070
ENCODING 213
SWIDTH 517 0
DWIDTH 13 0
BBX 11 11 1 0
BITMAP
07C0
1CE0
3860
70E0
F1C0
EF80
FC00
E000
F0E0
FF80
3E00
ENDCHAR

STARTCHAR afii10072
ENCODING 214
SWIDTH 1083 0
DWIDTH 27 0
BBX 27 11 0 0
BITMAP
0F8387C0
3FC71CE0
63C738E0
01C73800
01CE7800
01FFF000
03CE7000
439C7000
E31C78C0
E61C7F80
7C381E00
ENDCHAR

STARTCHAR afii10073
ENCODING 215
SWIDTH 407 0
DWIDTH 10 0
BBX 10 11 0 0
BITMAP
0F80
31C0
01C0
03C0
0E00
0700
0380
0380
E780
E780
7E00
ENDCHAR

STARTCHAR afii10074
ENCODING 216
SWIDTH 635 0
DWIDTH 16 0
BBX 14 11 1 0
BITMAP
3C3C
7C38
9C38
3C78
3878
38F0
78B0
7174
72E4
7EF8
78F0
ENDCHAR

STARTCHAR afii10075
ENCODING 217
SWIDTH 635 0
DWIDTH 16 0
BBX 14 17 1 0
BITMAP
0308
0398
03F0
01C0
0000
0000
3C3C
7C38
9C38
3C78
3878
38F0
78B0
7174
72E4
7CF8
78F0
ENDCHAR

STARTCHAR afii10076
ENCODING 218
SWIDTH 563 0
DWIDTH 14 0
BBX 13 12 1 0
BITMAP
0C30
7C78
3C70
3C80
3980
3F00
7B80
7380
73C0
F1C0
E1E0
E1E0
ENDCHAR

STARTCHAR afii10077
ENCODING 219
SWIDTH 594 0
DWIDTH 15 0
BBX 14 12 -1 0
BITMAP
001C
00FC
01B8
0338
0278
0470
0470
04F0
08E4
78E8
F0F8
60E0
ENDCHAR

STARTCHAR afii10078
ENCODING 220
SWIDTH 729 0
DWIDTH 18 0
BBX 17 11 0 0
BITMAP
078780
078F00
059300
0D9700
0BAE00
0BEE00
0BDE00
139C80
F39D00
F31F00
C21C00
ENDCHAR

STARTCHAR afii10079
ENCODING 221
SWIDTH 635 0
DWIDTH 16 0
BBX 14 11 1 0
BITMAP
7E3C
7C38
3C38
3878
3870
7FF0
7870
70F4
F0E4
F0F8
E0F0
ENDCHAR

STARTCHAR afii10080
ENCODING 222
SWIDTH 573 0
DWIDTH 14 0
BBX 12 11 1 0
BITMAP
0FC0
3CE0
7870
7070
F070
E070
E0F0
E0E0
E1E0
73C0
1F00
ENDCHAR

STARTCHAR afii10081
ENCODING 223
SWIDTH 635 0
DWIDTH 16 0
BBX 15 12 0 0
BITMAP
3C38
7CFC
DD9C
1D1C
3A1C
3C38
3C38
7878
7878
7072
F07C
E078
ENDCHAR

STARTCHAR afii10082
ENCODING 224
SWIDTH 612 0
DWIDTH 15 0
BBX 17 18 -3 -5
BITMAP
00E000
01E000
01FC00
03FF00
07C780
0DC380
138380
038380
078380
078780
070700
0F0E00
0FF800
0FC000
0E0000
1E0000
3E0000
FF8000
ENDCHAR

STARTCHAR afii10083
ENCODING 225
SWIDTH 506 0
DWIDTH 13 0
BBX 11 11 1 0
BITMAP
0FC0
3CE0
78E0
7040
F000
E000
E000
F000
F8E0
7F80
3E00
ENDCHAR

STARTCHAR afii10084
ENCODING 226
SWIDTH 1000 0
DWIDTH 25 0
BBX 25 12 0 0
BITMAP
3C3C1C00
7C7E3E00
DCCE4E00
9D0E8E00
3E1F1E00
3E1F1C00
3C1E1C00
783C1C00
783C3980
70383B00
F0783E00
F0783C00
ENDCHAR

STARTCHAR afii10085
ENCODING 227
SWIDTH 552 0
DWIDTH 14 0
BBX 16 16 -2 -5
BITMAP
0706
0F8F
1B8F
138F
0386
03C6
03CC
01C8
01D8
01F0
01E0
00C0
0180
F300
FC00
7800
ENDCHAR

STARTCHAR afii10086
ENCODING 228
SWIDTH 781 0
DWIDTH 20 0
BBX 18 22 1 -5
BITMAP
000780
001DC0
003980
003800
007800
007000
1F7F80
38FB80
78F1C0
70E1C0
F0E1C0
F1E3C0
E1C3C0
E3C380
E3C780
7DCF00
3BBE00
038000
078000
770000
760000
7C0000
ENDCHAR

STARTCHAR afii10087
ENCODING 229
SWIDTH 615 0
DWIDTH 15 0
BBX 15 11 0 0
BITMAP
1E1E
3F3E
6F66
07C0
0780
03C0
03C0
03E0
ECE6
F8F8
7070
ENDCHAR

STARTCHAR afii10088
ENCODING 230
SWIDTH 625 0
DWIDTH 16 0
BBX 14 16 1 -5
BITMAP
3C3C
7C38
9C38
3C78
3878
38F0
78B0
7174
72E4
7EF8
78F0
0060
00C0
00C0
03C0
0100
ENDCHAR

STARTCHAR afii10089
ENCODING 231
SWIDTH 615 0
DWIDTH 15 0
BBX 15 11 1 0
BITMAP
3C3C
5C38
9C38
3C38
3878
39B0
1E70
00F6
00E4
00F8
00F0
ENDCHAR

STARTCHAR afii10090
ENCODING 232
SWIDTH 1000 0
DWIDTH 25 0
BBX 26 11 0 0
BITMAP
1E0F0780
3E0E0700
CE1E0F00
1E1E0F00
1C3C1E00
1C7C0E00
3C5C2E00
38B85CC0
39399C80
3E3F1F00
1C1C1E00
ENDCHAR

STARTCHAR afii10091
ENCODING 233
SWIDTH 1000 0
DWIDTH 25 0
BBX 26 15 0 -4
BITMAP
1E0F0780
3E0E0700
CE1E0F00
1E1E0F00
1C3C1E00
1C7C0E00
3C5C2E00
38B85CC0
39399C80
3E3F1F00
1C1C1400
00000C00
00001800
00001800
00007000
ENDCHAR

STARTCHAR afii10092
ENCODING 234
SWIDTH 521 0
DWIDTH 13 0
BBX 11 12 1 0
BITMAP
3100
7F00
FA00
0600
1F80
3FE0
78E0
78E0
70E0
71E0
79C0
1F80
ENDCHAR

STARTCHAR afii10093
ENCODING 235
SWIDTH 781 0
DWIDTH 20 0
BBX 17 11 2 0
BITMAP
3C0F80
F81F80
780700
700700
778F00
7FCE00
F1CE00
E1DE00
E3DC80
E39F00
3F1E00
ENDCHAR

STARTCHAR afii10094
ENCODING 236
SWIDTH 510 0
DWIDTH 13 0
BBX 10 11 2 0
BITMAP
3C00
F800
7800
7000
7780
7FC0
F1C0
E1C0
E3C0
E380
3F00
ENDCHAR

STARTCHAR afii10095
ENCODING 237
SWIDTH 483 0
DWIDTH 12 0
BBX 12 11 0 0
BITMAP
0780
1FE0
71E0
00F0
00F0
0FE0
00E0
40E0
E1C0
E380
7E00
ENDCHAR

STARTCHAR afii10096
ENCODING 238
SWIDTH 867 0
DWIDTH 22 0
BBX 20 11 1 0
BITMAP
3E0FC0
7E3CE0
1C7870
1C7070
38F070
3FE070
38E0F0
78E0E0
70E1E0
7073C0
F01F00
ENDCHAR

STARTCHAR afii10097
ENCODING 239
SWIDTH 603 0
DWIDTH 15 0
BBX 14 11 0 0
BITMAP
0FFC
1E38
1C38
1C38
1E70
07F0
0C70
18F4
F0E8
F0F8
E0E0
ENDCHAR

STARTCHAR afii61352
ENCODING 240
SWIDTH 1135 0
DWIDTH 28 0
BBX 27 17 0 0
BITMAP
07E01E00
03E03E00
01F06E00
00F04E00
01F04000
0178C7C0
01788CE0
03789860
023DB860
023D38E0
021F30E0
061F30C0
041F1980
E40E0F00
EC0E0000
F8067F80
70047F80
ENDCHAR

STARTCHAR afii10071
ENCODING 241
SWIDTH 517 0
DWIDTH 13 0
BBX 13 17 1 0
BITMAP
0E38
0E38
0E38
0000
0000
03E0
0E70
1830
3870
7070
71E0
FF80
F000
F030
F8E0
7FC0
3F00
ENDCHAR

STARTCHAR afii10099
ENCODING 242
SWIDTH 631 0
DWIDTH 16 0
BBX 14 22 0 -4
BITMAP
0180
1F00
0F00
0F00
3FFC
0E00
0E00
1CF0
1F38
1C1C
3C1C
381C
381C
783C
703C
7038
F078
E070
00E0
01E0
0380
0700
ENDCHAR

STARTCHAR afii10100
ENCODING 243
SWIDTH 512 0
DWIDTH 13 0
BBX 13 18 0 0
BITMAP
00F0
00F0
00E0
01C0
0180
0000
0000
1FF8
1F18
0E18
1E00
1C00
1C00
3C00
3C00
3800
7C00
FC00
ENDCHAR

STARTCHAR afii10101
ENCODING 244
SWIDTH 547 0
DWIDTH 14 0
BBX 12 12 1 0
BITMAP
0780
1FE0
3C30
7810
7000
F000
FF00
E000
E060
F0E0
79E0
3F80
ENDCHAR

STARTCHAR afii10102
ENCODING 245
SWIDTH 490 0
DWIDTH 12 0
BBX 12 11 0 0
BITMAP
0FC0
1CE0
3870
3C60
3F00
1F80
07C0
E3C0
E1C0
F380
3F00
ENDCHAR

STARTCHAR afii10103
ENCODING 246
SWIDTH 333 0
DWIDTH 8 0
BBX 9 18 1 0
BITMAP
0300
0780
0780
0300
0000
0000
1800
7C00
DC00
9C00
3C00
3800
7800
7800
7200
F400
F800
7000
ENDCHAR

STARTCHAR afii10104
ENCODING 247
SWIDTH 333 0
DWIDTH 8 0
BBX 10 17 1 0
BITMAP
71C0
71C0
71C0
0000
0000
0000
3C00
7C00
9C00
3C00
3800
3800
7800
7000
F600
FC00
F800
ENDCHAR

STARTCHAR afii10105
ENCODING 248
SWIDTH 323 0
DWIDTH 8 0
BBX 13 22 -4 -5
BITMAP
0030
0078
0078
0030
0000
0000
01E0
03E0
06E0
01E0
01E0
01C0
01C0
03C0
03C0
0380
0780
0780
0700
C600
EE00
7800
ENDCHAR

STARTCHAR afii10106
ENCODING 249
SWIDTH 771 0
DWIDTH 19 0
BBX 18 12 0 0
BITMAP
007C00
01B800
037800
067000
047700
047FC0
08F1C0
08E1C0
08E1C0
F0E3C0
F07780
E03E00
ENDCHAR

STARTCHAR afii10107
ENCODING 250
SWIDTH 823 0
DWIDTH 21 0
BBX 19 11 0 0
BITMAP
3E1E00
7E7C00
1C3C00
1C3800
3C3BC0
3FFFE0
3878E0
7870E0
7871E0
7071C0
F01F80
ENDCHAR

STARTCHAR afii10108
ENCODING 251
SWIDTH 625 0
DWIDTH 16 0
BBX 15 17 0 0
BITMAP
0180
1F80
0700
0700
1FFC
0E00
0E78
1FFC
1E1C
1C3C
3C38
3878
3870
78F0
70E6
70F8
F0F0
ENDCHAR

STARTCHAR afii10109
ENCODING 252
SWIDTH 563 0
DWIDTH 14 0
BBX 13 18 1 0
BITMAP
01F0
01E0
01C0
0380
0300
0000
0C30
7C78
3C70
3C80
3980
3F00
7B80
7380
73C0
F1C0
E1E0
E1E0
ENDCHAR

STARTCHAR section
ENCODING 253
SWIDTH 594 0
DWIDTH 15 0
BBX 17 22 -1 -5
BITMAP
001F00
007F80
004780
018000
028000
02C000
06C000
06C000
066000
066000
023000
033000
031800
019800
019800
009800
009000
00B000
00E000
F9C000
7F0000
3C0000
ENDCHAR

STARTCHAR afii10110
ENCODING 254
SWIDTH 552 0
DWIDTH 14 0
BBX 16 22 -2 -5
BITMAP
00C2
00E6
00FC
0070
0000
0000
0706
0F8F
1B8F
138F
0386
03C6
03CC
01C8
01D8
01F0
01E0
00C0
0180
F300
FC00
7800
ENDCHAR

STARTCHAR afii10193
ENCODING 255
SWIDTH 635 0
DWIDTH 16 0
BBX 16 16 0 -5
BITMAP
1E0E
3E1E
4E1E
1E1C
1C3C
1C3C
3C58
38B9
39FA
3F7E
3E38
1800
3800
3000
7000
C000
ENDCHAR
ENDFONT
